HIERARCHY
ROOT hips
{
  OFFSET 0 9.313263304106702 1.2146308026317778
  CHANNELS 6 Xposition Yposition Zposition Yrotation Xrotation Zrotation
  JOINT spine
  {
    OFFSET -6.402521e-31 0.5173342420023708 0
    CHANNELS 3 Yrotation Xrotation Zrotation
    JOINT chest
    {
      OFFSET 0 1.130544299341115 0
      CHANNELS 3 Yrotation Xrotation Zrotation
      JOINT upperChest
      {
        OFFSET 0 1.0863555061129995 0
        CHANNELS 3 Yrotation Xrotation Zrotation
        JOINT neck
        {
          OFFSET 0 1.3773706506454462 0
          CHANNELS 3 Yrotation Xrotation Zrotation
          JOINT head
          {
            OFFSET 0 0.7374408940073979 0
            CHANNELS 3 Yrotation Xrotation Zrotation
            JOINT leftEye
            {
              OFFSET 0.25066580148932727 0.6408406698778757 0.15963719178883284
              CHANNELS 3 Yrotation Xrotation Zrotation
              End Site
              {
                OFFSET 0.25066580148932727 0.6408406698778757 0.15963719178883284
              }
            }
            JOINT rightEye
            {
              OFFSET -0.25066576739704244 0.6408406384191823 0.15963727561643756
              CHANNELS 3 Yrotation Xrotation Zrotation
              End Site
              {
                OFFSET -0.25066576739704244 0.6408406384191823 0.15963727561643756
              }
            }
          }
        }
        JOINT leftShoulder
        {
          OFFSET 0.3761817444281191 1.0539491987447769 0
          CHANNELS 3 Yrotation Xrotation Zrotation
          JOINT leftUpperArm
          {
            OFFSET 0.8702844380000002 0 0
            CHANNELS 3 Yrotation Xrotation Zrotation
            JOINT leftLowerArm
            {
              OFFSET 2.198527310000323 0 0
              CHANNELS 3 Yrotation Xrotation Zrotation
              JOINT leftHand
              {
                OFFSET 2.146852313968281 0 0
                CHANNELS 3 Yrotation Xrotation Zrotation
                JOINT leftIndexProximal
                {
                  OFFSET 0.6585177834681599 0.07380250427007962 0.18382213159631788
                  CHANNELS 3 Yrotation Xrotation Zrotation
                  JOINT leftIndexIntermediate
                  {
                    OFFSET 0.3323021288626682 -0.009606893929485771 -0.012820872253340998
                    CHANNELS 3 Yrotation Xrotation Zrotation
                    JOINT leftIndexDistal
                    {
                      OFFSET 0.2045908926985518 -0.0071133989147997845 -0.006828784783599051
                      CHANNELS 3 Yrotation Xrotation Zrotation
                      End Site
                      {
                        OFFSET 0.2045908926985518 -0.0071133989147997845 -0.006828784783599051
                      }
                    }
                  }
                }
                JOINT leftLittleProximal
                {
                  OFFSET 0.6110054258835662 0.07380246363125398 -0.29175655876064077
                  CHANNELS 3 Yrotation Xrotation Zrotation
                  JOINT leftLittleIntermediate
                  {
                    OFFSET 0.3144281999999998 -2.5124724523095665e-9 1.8658118799974588e-7
                    CHANNELS 3 Yrotation Xrotation Zrotation
                    JOINT leftLittleDistal
                    {
                      OFFSET 0.18116185580251631 0.002815456192251098 0.0034826415518049436
                      CHANNELS 3 Yrotation Xrotation Zrotation
                      End Site
                      {
                        OFFSET 0.18116185580251631 0.002815456192251098 0.0034826415518049436
                      }
                    }
                  }
                }
                JOINT leftMiddleProximal
                {
                  OFFSET 0.6637478005691111 0.07380246480054087 0.02046981859247815
                  CHANNELS 3 Yrotation Xrotation Zrotation
                  JOINT leftMiddleIntermediate
                  {
                    OFFSET 0.3705733999999994 -2.9611069152224445e-9 9.35054791928458e-8
                    CHANNELS 3 Yrotation Xrotation Zrotation
                    JOINT leftMiddleDistal
                    {
                      OFFSET 0.22861063500000056 -1.82673876025774e-9 -1.6740782024515788e-7
                      CHANNELS 3 Yrotation Xrotation Zrotation
                      End Site
                      {
                        OFFSET 0.22861063500000056 -1.82673876025774e-9 -1.6740782024515788e-7
                      }
                    }
                  }
                }
                JOINT leftRingProximal
                {
                  OFFSET 0.6561845547265777 0.07380246406440083 -0.13588087571513918
                  CHANNELS 3 Yrotation Xrotation Zrotation
                  JOINT leftRingIntermediate
                  {
                    OFFSET 0.3437531000000005 -2.746796123886952e-9 1.4935781944558357e-7
                    CHANNELS 3 Yrotation Xrotation Zrotation
                    JOINT leftRingDistal
                    {
                      OFFSET 0.1983118991198174 -0.002467117924596085 -0.004538141969590015
                      CHANNELS 3 Yrotation Xrotation Zrotation
                      End Site
                      {
                        OFFSET 0.1983118991198174 -0.002467117924596085 -0.004538141969590015
                      }
                    }
                  }
                }
                JOINT leftThumbProximal
                {
                  OFFSET 0.09767004258864787 -0.14930060425447422 -0.07008212897521154
                  CHANNELS 3 Yrotation Xrotation Zrotation
                  JOINT leftThumbIntermediate
                  {
                    OFFSET 0.36682123028154767 -0.015768465060082004 0.28693641268151077
                    CHANNELS 3 Yrotation Xrotation Zrotation
                    JOINT leftThumbDistal
                    {
                      OFFSET 0.21091084272403915 -0.016756648201192714 0.1933767059105508
                      CHANNELS 3 Yrotation Xrotation Zrotation
                      End Site
                      {
                        OFFSET 0.21091084272403915 -0.016756648201192714 0.1933767059105508
                      }
                    }
                  }
                }
              }
            }
          }
        }
        JOINT rightShoulder
        {
          OFFSET -0.37618174442811925 1.0539491987447769 0
          CHANNELS 3 Yrotation Xrotation Zrotation
          JOINT rightUpperArm
          {
            OFFSET -0.870284438 0 0
            CHANNELS 3 Yrotation Xrotation Zrotation
            JOINT rightLowerArm
            {
              OFFSET -2.1985273100003235 0 0
              CHANNELS 3 Yrotation Xrotation Zrotation
              JOINT rightHand
              {
                OFFSET -2.1468523139682802 0 0
                CHANNELS 3 Yrotation Xrotation Zrotation
                JOINT rightIndexProximal
                {
                  OFFSET -0.6585177834681599 0.07380250427007962 0.18382213159631788
                  CHANNELS 3 Yrotation Xrotation Zrotation
                  JOINT rightIndexIntermediate
                  {
                    OFFSET -0.3323021288626682 -0.009606893929485771 -0.012820872253340998
                    CHANNELS 3 Yrotation Xrotation Zrotation
                    JOINT rightIndexDistal
                    {
                      OFFSET -0.2045908926985518 -0.0071133989147997845 -0.006828784783599051
                      CHANNELS 3 Yrotation Xrotation Zrotation
                      End Site
                      {
                        OFFSET -0.2045908926985518 -0.0071133989147997845 -0.006828784783599051
                      }
                    }
                  }
                }
                JOINT rightLittleProximal
                {
                  OFFSET -0.6110054258835662 0.07380246363125398 -0.29175655876064077
                  CHANNELS 3 Yrotation Xrotation Zrotation
                  JOINT rightLittleIntermediate
                  {
                    OFFSET -0.3144281999999998 -2.5124724523095665e-9 1.8658118799974588e-7
                    CHANNELS 3 Yrotation Xrotation Zrotation
                    JOINT rightLittleDistal
                    {
                      OFFSET -0.18116185580251631 0.002815456192251098 0.0034826415518049436
                      CHANNELS 3 Yrotation Xrotation Zrotation
                      End Site
                      {
                        OFFSET -0.18116185580251631 0.002815456192251098 0.0034826415518049436
                      }
                    }
                  }
                }
                JOINT rightMiddleProximal
                {
                  OFFSET -0.6637478005691111 0.07380246480054087 0.02046981859247815
                  CHANNELS 3 Yrotation Xrotation Zrotation
                  JOINT rightMiddleIntermediate
                  {
                    OFFSET -0.3705733999999994 -2.9611069152224445e-9 9.35054791928458e-8
                    CHANNELS 3 Yrotation Xrotation Zrotation
                    JOINT rightMiddleDistal
                    {
                      OFFSET -0.22861063500000056 -1.82673876025774e-9 -1.6740782024515788e-7
                      CHANNELS 3 Yrotation Xrotation Zrotation
                      End Site
                      {
                        OFFSET -0.22861063500000056 -1.82673876025774e-9 -1.6740782024515788e-7
                      }
                    }
                  }
                }
                JOINT rightRingProximal
                {
                  OFFSET -0.6561845547265777 0.07380246406440083 -0.13588087571513918
                  CHANNELS 3 Yrotation Xrotation Zrotation
                  JOINT rightRingIntermediate
                  {
                    OFFSET -0.3437531000000005 -2.746796123886952e-9 1.4935781944558357e-7
                    CHANNELS 3 Yrotation Xrotation Zrotation
                    JOINT rightRingDistal
                    {
                      OFFSET -0.1983118991198174 -0.002467117924596085 -0.004538141969590015
                      CHANNELS 3 Yrotation Xrotation Zrotation
                      End Site
                      {
                        OFFSET -0.1983118991198174 -0.002467117924596085 -0.004538141969590015
                      }
                    }
                  }
                }
                JOINT rightThumbProximal
                {
                  OFFSET -0.09767004258864787 -0.14930060425447422 -0.07008212897521154
                  CHANNELS 3 Yrotation Xrotation Zrotation
                  JOINT rightThumbIntermediate
                  {
                    OFFSET -0.36682123028154767 -0.015768465060082004 0.28693641268151077
                    CHANNELS 3 Yrotation Xrotation Zrotation
                    JOINT rightThumbDistal
                    {
                      OFFSET -0.21091084272403915 -0.016756648201192714 0.1933767059105508
                      CHANNELS 3 Yrotation Xrotation Zrotation
                      End Site
                      {
                        OFFSET -0.21091084272403915 -0.016756648201192714 0.1933767059105508
                      }
                    }
                  }
                }
              }
            }
          }
        }
      }
    }
  }
  JOINT leftUpperLeg
  {
    OFFSET 0.7715603 -0.3993844658041501 0
    CHANNELS 3 Yrotation Xrotation Zrotation
    JOINT leftLowerLeg
    {
      OFFSET 0 -3.529830000249343 0
      CHANNELS 3 Yrotation Xrotation Zrotation
      JOINT leftFoot
      {
        OFFSET 0 -4.154939295409685 0.004208579085223096
        CHANNELS 3 Yrotation Xrotation Zrotation
        JOINT leftToes
        {
          OFFSET 0 -0.6353414391261847 1.10414981190622
          CHANNELS 3 Yrotation Xrotation Zrotation
          End Site
          {
            OFFSET 0 -0.6015820691747853 1.10414981190622
          }
        }
      }
    }
  }
  JOINT rightUpperLeg
  {
    OFFSET -0.7715603 -0.3993844658041501 0
    CHANNELS 3 Yrotation Xrotation Zrotation
    JOINT rightLowerLeg
    {
      OFFSET 0 -3.529830000249343 0
      CHANNELS 3 Yrotation Xrotation Zrotation
      JOINT rightFoot
      {
        OFFSET 0 -4.154939295409685 0.004208579085223096
        CHANNELS 3 Yrotation Xrotation Zrotation
        JOINT rightToes
        {
          OFFSET 0 -0.6353414391261847 1.10414981190622
          CHANNELS 3 Yrotation Xrotation Zrotation
          End Site
          {
            OFFSET 0 -0.6015820691747853 1.10414981190622
          }
        }
      }
    }
  }
}
MOTION
Frames: 4
Frame Time: 0.03333333333333333
0.04136734049428593 8.785338835282758 1.349072438457195 1.5779193322110117 -0.8929614534352028 -5.383605060182409 -1.1978441621144784 1.2977553361944671 2.989533533021723 1.1154045679685578 1.3545676342972766 11.820361626175018 0 0 0 -0.3047453643344353 1.0452932522468652 -2.166512659997257 0.5444105952980601 1.5848110882428355 -8.12252109336016 0 0 0 0 0 0 -13.789962907587064 3.4793647581877165 -5.897844484570731 3.5230578483575585 4.025254454548329 -83.43059657069813 -14.506795810562894 -0.000012998034799386698 0.0000058585597392618194 4.171909178047516 -27.5301304285871 -11.347244469671972 4.6663823473609485 0.33775350326697 -7.816555135891853 2.8352052453115624 0.38901924123319 -20.547118766081827 0.8092355083636783 0.034509095975938334 -10.169312113697648 16.293311382862054 5.49434157124692 -35.378880618742755 3.9918057917748655 1.5251516390951496 -45.54373943664765 2.83297644002811 0.5568644316938541 -20.498773743678385 8.7668994141625 0.9009402521411446 -15.692660033365472 3.9927068164324013 0.9152028380758637 -33.318276152262065 1.4925763736139583 0.1710925309362654 -12.273485069500339 11.684959414571294 2.5032412094865335 -26.39162197933317 3.8883463852810616 1.7071681949744368 -40.09947333759937 1.8351054874200456 0.5448153144179673 -19.326676431588115 0.21222949054931828 18.639555409412836 11.135301773895629 31.896633039057658 0.8128310350226845 -2.731583579054628 8.678210661541998 1.7973254237755212 -0.18778024744066105 3.3346812288242154 4.500529019973953 5.73351831149663 0.6560180329907528 -1.2196418062141279 67.33147284493522 17.736780447307837 -0.000008397703306333742 0.00001424601402618971 -9.297195814209937 -11.050100393322714 11.93640327137828 -4.699199636574231 0.3434637490367933 7.815831562618709 -2.7951387440168647 0.3828987192600804 20.5472091082031 -0.22654141020756066 -0.19321165019082964 13.844665338445415 -16.051776874596946 5.32159054006664 35.401065070448624 -4.028841193366274 1.2634412863347355 45.54853904029366 -0.31179693897773963 -0.765249398389648 22.12337580465293 -8.820510949648682 0.9156266840648063 15.67978912976432 -3.902293730002618 0.8957706576100698 33.352132193401395 -1.7259087876060546 0.21554977938908118 15.89130718716647 -11.6624011078518 2.491744258545275 26.38511570368146 -3.9124919978639268 1.7117687740717007 40.10101345810157 0.02349861318024009 -0.1517128860775556 17.812827833850996 -0.32276230385081905 18.6737531220689 -11.19836033844473 -31.779938247886413 0.7800878929166174 2.7765095847997543 -7.71959961118456 1.6126880449397683 1.0315262566844927 11.458013242407715 -19.195014116899486 12.123627030738394 10.23207541367877 21.727357272580058 6.162126789404061 3.343091902052178 -1.4884324376955826 -8.868854588827087 -0.0000013260252049587573 -0.4419603374668967 -0.000003549078189222109 -4.968766619371556 -1.5992631574085325 10.690774766627746 -5.203767472277868 12.399321764503624 2.148075052889329 1.0234748516827397 -9.845475144733484 -7.929742488952119 0.0000052028597213316275 -0.5146513758744031 0.0000021921112730759855
0.04249144345521927 8.784009760076348 1.3478909931186858 1.5939871787826332 -1.0398867960644482 -5.41526731553564 -1.1394761213559141 1.316652771047096 3.013690022050394 1.3499046966686854 1.4066473657886573 11.86576067729629 0 0 0 -0.372008097394853 1.0624641575591594 -2.1619571409099967 0.5169806791011655 1.8093431172206054 -8.199726756323273 0 0 0 0 0 0 -13.901784623744906 3.4220625116146692 -6.030796989789954 4.155362312338245 4.313702759804489 -83.05934869576089 -15.205878064559336 -0.000030816390848258005 -0.0000067982272925743805 4.512449191680644 -26.773024106009924 -11.387995383768526 4.286127325629174 0.641620730201563 -6.6935419184672655 2.8352052453115624 0.3890120907140883 -20.547118766081827 0.8092433516279147 0.03451942797295389 -10.169330364245816 15.875801175636557 4.661097216608433 -31.302475685113922 3.9847687924101587 1.5186621642777691 -45.448648033652084 2.8318633077833746 0.5563120674431472 -20.486417428490256 8.479840191480216 0.7904570406016852 -14.548810234789396 3.992705964622249 0.9152080681066485 -33.318279006389105 1.4925687989100116 0.1710810983225649 -12.273488406554499 11.166025203495098 2.0814516597084634 -23.707282973898455 3.88742639169995 1.7062193382503879 -40.086386655056614 1.835111461040587 0.5448154211444981 -19.326690453034907 0.21222728094226612 18.639551805273932 11.135307078325877 31.896633039057658 0.8128310350226845 -2.731583579054628 8.678210661541998 1.7973254237755212 -0.18778024744066105 3.691554860292194 4.441713279430864 6.373379378361963 -0.6158869408209354 -0.9107265749280642 66.74018694753815 18.57936228451998 5.50193467682644e-7 0.00001908542226776042 -11.854397599813288 -8.188510678836833 9.262004578839194 -4.699202614790809 0.343456038255011 7.8158298709036025 -2.795132987772659 0.3829034151199952 20.547192320305744 -0.22654645279755267 -0.19320408624692706 13.844671970241794 -16.051778522674255 5.321591826270883 35.401077431535796 -4.0288369340117915 1.2634422470636584 45.54851971778902 -0.3117994204420157 -0.765252386863958 22.123380550563827 -8.82051263721725 0.9156420539530323 15.679812350722132 -3.902290322409212 0.8957638265860813 33.35213504640403 -1.7259133745900677 0.21553921386544542 15.891303902563795 -11.6624011078518 2.4917491723898086 26.385112641451357 -3.9124911456997804 1.7117655709911406 40.10101827227915 0.023501668099479407 -0.15170628264886202 17.812821331071795 -0.3226775938512372 18.671148626871748 -11.166984027031726 -31.77658308312315 0.7966844225531207 2.8161570942825445 -7.719602150298769 1.6127007498551196 1.0315218800701502 11.37268052587916 -19.155803624099292 12.146665357675 10.330601174969567 21.896331876750736 6.338406388921938 3.3426703841255883 -1.4579800049260943 -8.917432049450198 -0.0000015901207154750945 -0.5274796953423584 0.000005817786600612409 -4.97731974284398 -1.5160736821326277 10.732138985705799 -5.100904449438909 12.533225711430005 2.112260967263722 0.9157110908180961 -9.918585932155246 -7.900401731879968 -2.4864162605379337e-7 -0.5146426243414883 -7.962224692980232e-7
0.04608435048298402 8.782581849531693 1.3480153365355934 1.6979164030957228 -1.1683464049565708 -5.429458202255707 -1.0879530529341952 1.3260158215787954 3.0177092181894265 1.5497571347216061 1.4253354542692283 11.86040269997596 0 0 0 -0.4182061617991116 1.1189846113953539 -2.149038575351101 0.6072457339061947 2.2164529023416466 -8.24189978557656 0 0 0 0 0 0 -14.111276563631607 3.349948770747809 -6.183426179400432 5.252611260728961 5.36318608035439 -82.62196685133955 -17.031004277044445 -0.00003159775736063114 0.000002786179335625013 5.018801560367843 -25.662332714196335 -11.23301881301251 3.8540744009455645 1.015598684606887 -5.371040923822651 2.83520290025389 0.38901409179219454 -20.54711716712518 0.8092432982723757 0.034517116780593625 -10.169312113697648 15.255410008399341 3.7318162564548696 -26.51277771972171 3.976465969020618 1.5110402109847323 -45.336810059740195 2.8305369031912186 0.5556623684703509 -20.47186901710252 8.137314639413479 0.6724403036689823 -13.201644885729971 3.9927063905273257 0.9151939790441437 -33.318279006389105 1.4925806410527784 0.17108990290254367 -12.27350414927616 10.512158466215773 1.634809451793703 -20.545854149390323 3.8863405373081306 1.7051038156068588 -40.07090184619888 1.8351229815943761 0.5448180893077669 -19.326696417508963 0.2122247742279416 18.639562617690864 11.135300701806973 31.896633039057658 0.8128310350226845 -2.731583579054628 8.678210661541998 1.7973254237755212 -0.18778024744066105 4.036187880209368 4.364642756371497 6.776960215774945 -1.9679659229927904 -0.5865968719594117 66.36925590557284 19.518521711019837 -5.9415140504640225e-8 -0.0000027118968449284966 -14.07148646663782 -6.056658601445263 6.744848551018007 -4.6992051675478566 0.34346647048918855 7.815813335185702 -2.795132348189966 0.3828931962884794 20.547215504020976 -0.2265405831160802 -0.1932050467477399 13.844672799216315 -16.051781818828786 5.321576820554885 35.40105550511359 -4.0288431371063185 1.2634451292504287 45.54852937904136 -0.3118123080467855 -0.7652475305932055 22.123388164692123 -8.820509262080098 0.9156258301821291 15.679786562465674 -3.902293730002618 0.8957678825065729 33.35213504640403 -1.7259218018397087 0.21555057980753875 15.891316333778093 -11.662403618669993 2.4917504542622986 26.38509735430533 -3.9124898674535573 1.7117622611412342 40.10101084469528 0.023499520317830817 -0.15171035142815784 17.812837007034805 -0.318204160028775 18.66294247556297 -11.086593990998075 -31.75983576217528 0.8468416876270052 2.9332694287951724 -7.719609767641212 1.6126777955963492 1.0315296725786054 11.326978113202456 -19.14276204188273 12.120738577740234 10.292132612844826 22.0938254105186 6.430326462694951 3.3430854615510674 -1.4868148452098313 -8.918852152207485 -0.000002801738470677316 -0.5943202516813823 0.0000015375937295760935 -4.988447257512959 -1.4702795349789675 10.744823558923201 -4.995815877754938 12.713696996265499 2.0705070379327073 0.7206288425970053 -10.031159533143873 -7.838300688487712 -0.000003228950428808027 -0.5146545776547408 -0.0000014365861774949206
0.05145055665211244 8.781342939897016 1.3481255644888972 1.907180997679047 -1.3059697985717797 -5.409836570250853 -1.0439557494158611 1.3383127387195344 3.0044479970930458 1.7226142431265408 1.459710738203604 11.7865696794459 0 0 0 -0.44439142314864144 1.1978101181595076 -2.1559729802266796 0.7787142480012399 2.869936611882935 -8.260198815310869 0 0 0 0 0 0 -14.358459743254366 3.2728606840326155 -6.29643740482994 6.498502432643414 6.588806308209452 -82.15475270327637 -18.514347146887165 -0.000013606208150468441 0.000018368519339449132 4.61940909620251 -24.462902807560177 -10.91531035620868 3.415087921704874 1.4307921223661766 -3.968166279641688 2.8351950123325595 0.3890184141209055 -20.54709878026037 0.8092466063157862 0.034510496698580785 -10.169326162439518 14.452692204625215 2.8242690910308217 -21.441436741377725 3.967662362000302 1.5029717138614946 -45.21825851746391 2.829136991835643 0.5549798511048349 -20.456423219671315 7.768928345962219 0.5616585457388453 -11.772501845312489 3.992699576046049 0.915193872308822 -33.318279006389105 1.4925796808790455 0.1710896360970897 -12.273485069500339 9.772318185771187 1.2246649522333084 -17.192047111235517 3.885195031092634 1.7039494297234539 -40.05450759085459 1.835106554138002 0.5448081637404129 -19.326694806114446 0.21222388873565268 18.63953378458057 11.135318759273165 31.896633039057658 0.8128310350226845 -2.731583579054628 8.678210661541998 1.7973254237755212 -0.18778024744066105 4.339624208833936 4.282085695486133 7.014438566979296 -3.4825796496391304 -0.7069906513603049 66.27341019033676 20.109794275164155 0.000005566324472019492 0.000022458753778021616 -15.816648630804071 -5.2789397672151495 4.895785556381625 -4.69920474208835 0.3434607340944348 7.815804876609795 -2.795130429441883 0.38289127525487987 20.547201513731647 -0.22654645279755267 -0.19320752804150665 13.844659547394055 -16.051778522674255 5.321576820554885 35.40102121760542 -4.028849100202846 1.2634513206146132 45.54852937904136 -0.31180590426802185 -0.7652439550971603 22.123377386623265 -8.820509262080098 0.9156242291521096 15.67977998560751 -3.902292878104269 0.8957666016895751 33.35211800102179 -1.7259211617954344 0.21555438179521272 15.891319618380566 -11.662405292548765 2.4917365673103906 26.38509735430533 -3.912498389094969 1.7117744328473696 40.101023086456806 0.023505688519940993 -0.1517045083942841 17.812824582461456 -0.30526406597229705 18.654725907828762 -10.953916982354968 -31.73215593794295 0.9283149762669485 3.123717107235027 -7.723997472709658 1.5948457241533787 1.031946731519101 11.2893190335829 -19.12692734908501 12.047990209873852 10.117791083186562 22.304160177254673 6.443484648573235 3.346572610066896 -1.5236566859622207 -8.867926388213387 -0.000004238970135748075 -0.6794384261859923 -0.000001037929417294496 -4.994238726779244 -1.4391576722066277 10.73522540610589 -4.886553854504836 12.926760722358262 2.003014114944518 0.41086182244802627 -10.171074413996157 -7.743108362344192 0.000003552518209050482 -0.5146426243414883 -0.000002503833273679942
